<?xml version="1.0" encoding="utf-8"?>
<svg id="Layer_1" xmlns="http://www.w3.org/2000/svg" version="1.1" viewBox="0 0 494.1 477.3">
  <defs>
    <style>
      .st0, .st1, .st2, .st3, .st4, .st5, .st6 {
        fill: #cda84d;
      }

      .st7, .st1, .st2, .st3, .st4, .st5, .st6 {
        isolation: isolate;
      }

      .st1 {
        letter-spacing: 0em;
      }

      .st1, .st2, .st5 {
        font-family: SVN-GilroyBold, SVN-Gilroy;
        font-size: 47.9px;
        font-weight: 700;
      }

      .st2 {
        letter-spacing: 0em;
      }

      .st3 {
        letter-spacing: 0em;
      }

      .st3, .st4, .st6 {
        font-family: SVN-GilroySemiBold, SVN-Gilroy;
        font-size: 24px;
        font-weight: 600;
      }

      .st4 {
        letter-spacing: 0em;
      }
    </style>
  </defs>
  <g class="st7">
    <text class="st1" transform="translate(30.2 395.6)" style="white-space: pre;"><tspan x="0" y="0">M.A RENO</tspan></text>
    <text class="st5" style="white-space: pre;" x="250" y="395.6"><tspan x="250" y="395.6" style="font-size: 47.9px; word-spacing: 0px;">V</tspan></text>
    <text class="st2" style="white-space: pre;" x="281" y="395.6"><tspan x="281" y="395.6" style="font-size: 47.9px; word-spacing: 0px;">A</tspan></text>
    <text class="st1" style="white-space: pre;" x="314.1" y="395.6"><tspan x="314.1" y="395.6" style="font-size: 47.9px; word-spacing: 0px;">TION</tspan></text>
  </g>
  <g class="st7">
    <text class="st6" transform="translate(76.1 433.2)" style="white-space: pre;"><tspan x="0" y="0">CẢI </tspan></text>
    <text class="st4" transform="translate(121.5 433.2)" style="white-space: pre;"><tspan x="0" y="0">T</tspan></text>
    <text class="st3" transform="translate(133.2 433.2)" style="white-space: pre;"><tspan x="0" y="0">Ạ</tspan></text>
    <text class="st6" transform="translate(148.2 433.2)" style="white-space: pre;"><tspan x="0" y="0">O &amp; NỘI TH</tspan></text>
    <text class="st4" transform="translate(271.6 433.2)" style="white-space: pre;"><tspan x="0" y="0">Ấ</tspan></text>
    <text class="st6" transform="translate(286.1 433.2)" style="white-space: pre;"><tspan x="0" y="0">T TRỌN GÓI</tspan></text>
  </g>
  <g transform="matrix(1, 0, 0, 1, -14, 0)">
    <path class="st0" d="M328.8,245.1l-15.4,10.3v-98.8h-31l-35.4,30.1-35.4-30.1h-31v98.7l-15.3-10.2v-109h-26.1v117.7h1l106.8,71.5h0c0,0,0,0,0,0h0s0,0,0,0l107.5-71.9h.3v-117.7h-26.1v109.5h0ZM211.6,192l35.4,27.5h0l35.4-27.5v84.2l-35.3,23.6-35.4-23.7v-84.1h0Z"/>
    <polygon class="st0" points="247.1 38 247.1 37.9 247.1 38 247 37.9 247 38 139.2 110.1 139.2 135.7 247.1 63.5 354.9 135.7 354.9 110.1 247.1 38"/>
    <polygon class="st0" points="247 120.7 211.6 150.7 282.4 150.7 247 120.7"/>
  </g>
</svg>